<?xml version="1.0" encoding="utf-8"?>
<!-- Generator: Adobe Illustrator 16.0.0, SVG Export Plug-In . SVG Version: 6.00 Build 0)  -->
<!DOCTYPE svg PUBLIC "-//W3C//DTD SVG 1.1//EN" "http://www.w3.org/Graphics/SVG/1.1/DTD/svg11.dtd">
<svg version="1.1" id="Layer_1" xmlns="http://www.w3.org/2000/svg" xmlns:xlink="http://www.w3.org/1999/xlink" x="0px" y="0px"
	 width="720px" height="140px" viewBox="0 0 720 140" enable-background="new 0 0 720 140" xml:space="preserve">
<g>
	<path fill-rule="evenodd" clip-rule="evenodd" fill="#FFFFFF" d="M27.486,40.553h6.371c-3.672-4.034-5.929-9.5-5.929-15.519
		c0-12.413,9.591-22.473,21.422-22.473c8.604,0,16.021,5.322,19.429,12.999C72.185,7.883,79.602,2.561,88.207,2.561
		c11.831,0,21.421,10.061,21.421,22.473c0,6.019-2.256,11.485-5.929,15.519h13.047c5.018,0,9.124,4.104,9.124,9.124v61.543
		c0,5.017-4.105,9.122-9.124,9.122h-11.447L91.157,135.1l2.165-14.758H27.486c-5.018,0-9.123-4.105-9.123-9.122V49.677
		C18.363,44.658,22.468,40.553,27.486,40.553L27.486,40.553z M128.721,80.764l26.553-26.812v53.624L128.721,80.764L128.721,80.764z
		 M1.783,46.569h12.628v21.696H1.783V46.569L1.783,46.569z M49.349,14.089c-5.764,0-10.433,4.9-10.433,10.945
		c0,6.044,4.669,10.944,10.433,10.944c5.762,0,10.432-4.9,10.432-10.944C59.781,18.989,55.111,14.089,49.349,14.089L49.349,14.089z
		 M49.349,17.387c-4.025,0-7.289,3.423-7.289,7.647c0,4.223,3.264,7.645,7.289,7.645c4.025,0,7.288-3.422,7.288-7.645
		C56.637,20.81,53.374,17.387,49.349,17.387L49.349,17.387z M88.207,14.089c-5.762,0-10.432,4.9-10.432,10.945
		c0,6.044,4.67,10.944,10.432,10.944s10.432-4.9,10.432-10.944C98.639,18.989,93.969,14.089,88.207,14.089L88.207,14.089z
		 M88.207,17.387c-4.025,0-7.289,3.423-7.289,7.647c0,4.223,3.263,7.645,7.289,7.645c4.026,0,7.288-3.422,7.288-7.645
		C95.495,20.81,92.232,17.387,88.207,17.387L88.207,17.387z M33.74,52.599c-4.523,0-8.226,3.702-8.226,8.227v39.244
		c0,4.525,3.702,8.226,8.226,8.226h76.751c4.524,0,8.227-3.7,8.227-8.226V60.826c0-4.525-3.702-8.227-8.227-8.227H33.74z"/>
	<path fill-rule="evenodd" clip-rule="evenodd" fill="#C9DA2A" d="M71.145,94.04c6.777,0,12.305-5.762,12.305-12.822
		c0-7.064-5.528-12.825-12.305-12.825c-6.778,0-12.306,5.76-12.306,12.825C58.839,88.278,64.367,94.04,71.145,94.04z"/>
</g>
<g>
	<path fill="#FFFFFF" d="M698.193,47.125V33.026h5.994c1.507,0,2.6,0.128,3.283,0.381c0.682,0.252,1.23,0.703,1.641,1.349
		c0.41,0.65,0.613,1.389,0.613,2.222c0,1.058-0.313,1.933-0.933,2.623c-0.619,0.687-1.552,1.123-2.79,1.3
		c0.618,0.361,1.126,0.755,1.527,1.185c0.399,0.43,0.938,1.192,1.617,2.288l1.725,2.75h-3.404l-2.059-3.069
		c-0.731-1.096-1.23-1.786-1.499-2.071c-0.27-0.286-0.556-0.479-0.856-0.587c-0.303-0.105-0.779-0.158-1.436-0.158h-0.574v5.885
		H698.193L698.193,47.125z M701.043,38.988h2.104c1.364,0,2.219-0.056,2.561-0.171c0.338-0.115,0.603-0.315,0.796-0.598
		c0.191-0.282,0.289-0.634,0.289-1.057c0-0.476-0.128-0.856-0.381-1.149c-0.252-0.292-0.609-0.476-1.073-0.554
		c-0.229-0.03-0.922-0.047-2.078-0.047h-2.218V38.988z"/>
	<path fill-rule="evenodd" clip-rule="evenodd" fill="#FFFFFF" d="M704.286,26.853c7.188,0,13.015,5.974,13.015,13.343
		c0,7.369-5.827,13.343-13.015,13.343c-7.188,0-13.016-5.974-13.016-13.343C691.271,32.827,697.098,26.853,704.286,26.853
		L704.286,26.853z M704.286,29.693c-5.658,0-10.244,4.702-10.244,10.502s4.586,10.502,10.244,10.502
		c5.657,0,10.243-4.703,10.243-10.502S709.943,29.693,704.286,29.693z"/>
</g>
<path fill="#FFFFFF" d="M210.598,106.702h-12.85V64.708c0-1.591-0.741-2.395-2.224-2.395c-1.498,0-2.255,0.772-2.255,2.302v42.087
	h-12.851V64.615c0-1.591-0.741-2.394-2.224-2.394c-1.514,0-2.254,0.772-2.254,2.316v42.165H163.09V54.175h12.851v1.853
	c1.776-1.482,4.448-2.224,8-2.224c2.997,0,5.699,1.189,8.155,3.583c2.254-2.394,5.343-3.583,9.266-3.583
	c2.24,0,4.325,0.679,6.286,2.023c1.961,1.328,2.95,3.197,2.95,5.576V106.702L210.598,106.702z M243.757,84.446h-17.329V96.71
	c0,1.775,0.757,2.655,2.255,2.655c1.483,0,2.224-0.88,2.224-2.655V86.114h12.85v10.672c0,7.089-5.05,10.642-15.167,10.642
	c-10.008,0-15.012-3.69-15.012-11.089V64.893c0-7.397,5.004-11.089,15.012-11.089c10.117,0,15.167,3.552,15.167,10.641V84.446
	L243.757,84.446z M230.908,76.569V64.538c0-1.729-0.741-2.579-2.224-2.579c-1.498,0-2.255,0.85-2.255,2.579v12.032H230.908
	L230.908,76.569z M272.176,106.702h-8.139c-5.822,0-9.313-0.881-10.456-2.626c-1.143-1.746-1.714-5.113-1.714-10.085V61.958h-5.745
	v-7.784h5.745V43.58h12.896v10.595h6.965v7.784h-6.965v31.94c0,1.544,0.447,2.564,1.375,3.104c0.927,0.525,2.934,0.787,6.039,0.787
	V106.702L272.176,106.702z M305.166,75.937H292.27V64.538c0-1.606-0.741-2.409-2.209-2.409c-1.482,0-2.224,0.771-2.224,2.316v42.257
	H274.94V54.175h12.896v1.761c1.73-1.421,4.371-2.131,7.97-2.131c2.564,0,4.757,0.695,6.61,2.054
	c1.838,1.374,2.749,3.181,2.749,5.421V75.937L305.166,75.937z M307.344,96.339V64.893c0-7.397,5.112-11.089,15.336-11.089
	c3.954,0,7.429,0.864,10.44,2.579c2.997,1.73,4.495,4.402,4.495,8.062v32.341c0,7.089-4.973,10.642-14.935,10.642
	C312.456,107.428,307.344,103.737,307.344,96.339L307.344,96.339z M324.719,96.71V64.538c0-1.729-0.742-2.579-2.209-2.579
	c-1.513,0-2.271,0.85-2.271,2.579V96.71c0,1.775,0.757,2.655,2.271,2.655C323.977,99.365,324.719,98.485,324.719,96.71
	L324.719,96.71z M387.841,106.702h-12.85V64.708c0-1.591-0.741-2.395-2.224-2.395c-1.498,0-2.256,0.772-2.256,2.302v42.087h-12.85
	V64.615c0-1.591-0.741-2.394-2.224-2.394c-1.514,0-2.255,0.772-2.255,2.316v42.165h-12.85V54.175h12.85v1.853
	c1.776-1.482,4.448-2.224,8-2.224c2.996,0,5.7,1.189,8.154,3.583c2.256-2.394,5.344-3.583,9.268-3.583
	c2.239,0,4.324,0.679,6.286,2.023c1.962,1.328,2.949,3.197,2.949,5.576V106.702L387.841,106.702z M421.233,106.702h-11.415v-2.04
	c-0.957,1.839-3.721,2.766-8.278,2.766c-7.026,0-10.548-2.749-10.548-8.231V88.647c0-2.348,0.864-4.402,2.563-6.147
	c1.699-1.762,5.144-3.938,10.302-6.563c2.98-1.515,4.479-2.719,4.479-3.63v-7.769c0-1.729-0.741-2.579-2.224-2.579
	c-1.684,0-2.533,2.085-2.533,6.286c0,0.756,0.048,1.869,0.14,3.351c0.122,1.468,0.169,2.595,0.169,3.337h-12.433V64.445
	c0-7.089,5.127-10.641,15.383-10.641c9.592,0,14.396,3.691,14.396,11.089V106.702L421.233,106.702z M408.336,96.879v-13.53
	c-2.965,0.727-4.448,2.055-4.448,3.985v9.545c0,1.606,0.772,2.41,2.317,2.41C407.626,99.289,408.336,98.485,408.336,96.879
	L408.336,96.879z M449.774,106.702h-8.139c-5.823,0-9.314-0.881-10.456-2.626c-1.144-1.746-1.715-5.113-1.715-10.085V61.958h-5.746
	v-7.784h5.746V43.58h12.896v10.595h6.966v7.784h-6.966v31.94c0,1.544,0.448,2.564,1.373,3.104c0.928,0.525,2.936,0.787,6.04,0.787
	V106.702L449.774,106.702z M464.895,51.271h-12.896v-9.452h12.896V51.271L464.895,51.271z M464.895,106.702h-12.896V54.175h12.896
	V106.702L464.895,106.702z M497.791,106.702h-12.896V64.538c0-1.606-0.741-2.409-2.224-2.409c-1.469,0-2.209,0.771-2.209,2.316
	v42.257h-12.896V54.175h12.896v1.761c1.714-1.421,4.37-2.131,7.954-2.131c2.332,0,4.464,0.633,6.425,1.9
	c1.962,1.266,2.949,3.12,2.949,5.575V106.702L497.791,106.702z M530.781,84.446h-17.329V96.71c0,1.775,0.757,2.655,2.255,2.655
	c1.482,0,2.225-0.88,2.225-2.655V86.114h12.85v10.672c0,7.089-5.05,10.642-15.167,10.642c-10.008,0-15.012-3.69-15.012-11.089
	V64.893c0-7.397,5.004-11.089,15.012-11.089c10.117,0,15.167,3.552,15.167,10.641V84.446L530.781,84.446z M517.932,76.569V64.538
	c0-1.729-0.742-2.579-2.225-2.579c-1.498,0-2.255,0.85-2.255,2.579v12.032H517.932L517.932,76.569z M563.863,84.446h-17.328V96.71
	c0,1.775,0.757,2.655,2.255,2.655c1.482,0,2.224-0.88,2.224-2.655V86.114h12.85v10.672c0,7.089-5.05,10.642-15.166,10.642
	c-10.008,0-15.013-3.69-15.013-11.089V64.893c0-7.397,5.005-11.089,15.013-11.089c10.116,0,15.166,3.552,15.166,10.641V84.446
	L563.863,84.446z M551.014,76.569V64.538c0-1.729-0.741-2.579-2.224-2.579c-1.498,0-2.255,0.85-2.255,2.579v12.032H551.014
	L551.014,76.569z M578.351,106.702h-11.768V97.25h11.768V106.702L578.351,106.702z M611.156,77.419h-12.852V64.538
	c0-1.729-0.74-2.579-2.223-2.579c-1.499,0-2.256,0.85-2.256,2.579V96.71c0,1.775,0.757,2.655,2.256,2.655
	c1.482,0,2.223-0.88,2.223-2.655V83.982h12.852v12.804c0,7.089-4.958,10.642-14.889,10.642c-10.193,0-15.291-3.69-15.291-11.089
	V64.893c0-7.397,5.098-11.089,15.291-11.089c9.931,0,14.889,3.552,14.889,10.641V77.419L611.156,77.419z M613.735,96.339V64.893
	c0-7.397,5.112-11.089,15.336-11.089c3.954,0,7.428,0.864,10.44,2.579c2.996,1.73,4.495,4.402,4.495,8.062v32.341
	c0,7.089-4.974,10.642-14.936,10.642C618.848,107.428,613.735,103.737,613.735,96.339L613.735,96.339z M631.11,96.71V64.538
	c0-1.729-0.741-2.579-2.208-2.579c-1.515,0-2.271,0.85-2.271,2.579V96.71c0,1.775,0.757,2.655,2.271,2.655
	C630.369,99.365,631.11,98.485,631.11,96.71L631.11,96.71z M694.232,106.702h-12.849V64.708c0-1.591-0.743-2.395-2.226-2.395
	c-1.497,0-2.254,0.772-2.254,2.302v42.087h-12.852V64.615c0-1.591-0.74-2.394-2.223-2.394c-1.514,0-2.255,0.772-2.255,2.316v42.165
	h-12.851V54.175h12.851v1.853c1.775-1.482,4.447-2.224,8-2.224c2.997,0,5.699,1.189,8.155,3.583
	c2.255-2.394,5.344-3.583,9.266-3.583c2.24,0,4.324,0.679,6.287,2.023c1.961,1.328,2.949,3.197,2.949,5.576V106.702z"/>
</svg>
